# xmcd CD database file
#
# Track frame offsets:
#	150
#	19970
#	37813
#	60775
#	80526
#	98524
#	117564
#	134395
#	157827
#	175589
#	188934
#
# Disc length: 2672 seconds
#
# Revision: 0
# Processed by: cddbd v1.5.1PL2 Copyright (c) Steve Scherf et al.
# Submitted via: CDex 1.51
#
DISCID=7c0a6e0b
DTITLE=Comasoft - Comasoft
DYEAR=2004
DGENRE=Salsa
TTITLE0=end of time
TTITLE1=swerve
TTITLE2=dance all night
TTITLE3=how i get
TTITLE4=crank
TTITLE5=iwish
TTITLE6=motion
TTITLE7=your friends
TTITLE8=zombie
TTITLE9=breathe
TTITLE10=out
EXTD=YEAR: 2004
EXTT0=
EXTT1=
EXTT2=
EXTT3=
EXTT4=
EXTT5=
EXTT6=
EXTT7=
EXTT8=
EXTT9=
EXTT10=
PLAYORDER=
